<svg xmlns="http://www.w3.org/2000/svg" xmlns:xlink="http://www.w3.org/1999/xlink" width="25" height="25" viewBox="0 0 25 25">
    <defs>
        <path id="a" d="M13.948 25h-2.895a.498.498 0 0 1-.475-.348l-.77-2.45a9.96 9.96 0 0 1-2.263-.94l-2.279 1.19a.498.498 0 0 1-.582-.09l-2.046-2.047a.498.498 0 0 1-.09-.582l1.193-2.288c-.4-.709-.71-1.463-.927-2.248l-2.466-.775A.498.498 0 0 1 0 13.947v-2.894c0-.217.141-.41.348-.474l2.478-.78c.218-.778.53-1.524.926-2.225L2.55 5.267a.498.498 0 0 1 .09-.582l2.045-2.047a.499.499 0 0 1 .582-.09l2.317 1.209a9.992 9.992 0 0 1 2.21-.915l.785-2.494A.5.5 0 0 1 11.053 0h2.895a.5.5 0 0 1 .475.348l.783 2.493c.772.216 1.514.523 2.212.915l2.316-1.209a.498.498 0 0 1 .582.09l2.047 2.046c.153.154.19.39.09.582l-1.205 2.309c.397.7.708 1.446.926 2.224l2.478.78a.497.497 0 0 1 .348.475v2.894c0 .217-.141.41-.348.474l-2.465.776c-.219.788-.53 1.543-.928 2.248l1.194 2.288c.1.192.064.428-.09.582l-2.047 2.047a.497.497 0 0 1-.582.09l-2.279-1.19a9.947 9.947 0 0 1-2.263.94l-.77 2.45a.497.497 0 0 1-.474.348zM12.5 19.35a6.838 6.838 0 0 0 6.831-6.83 6.838 6.838 0 0 0-6.831-6.83 6.838 6.838 0 0 0-6.831 6.83 6.838 6.838 0 0 0 6.831 6.83z"/>
    </defs>
    <use fill="#FFF" fill-rule="nonzero" xlink:href="#a"/>
</svg>
