<?xml version="1.0" encoding="UTF-8"?>
<svg width="12px" height="12px" viewBox="0 0 12 12" version="1.1" xmlns="http://www.w3.org/2000/svg" xmlns:xlink="http://www.w3.org/1999/xlink">
    <!-- Generator: sketchtool 48.2 (47327) - http://www.bohemiancoding.com/sketch -->
    <title>8EE1D38D-46B4-49E2-9175-451AA3B86E2D</title>
    <desc>Created with sketchtool.</desc>
    <defs></defs>
    <g id="Settings" stroke="none" stroke-width="1" fill="none" fill-rule="evenodd" transform="translate(-243.000000, -66.000000)">
        <path d="M247.788165,74.9792284 C249.901774,75.7905669 251.443539,74.8156781 252.121327,73.0499807 C252.317675,72.5384757 252.386538,72.0165665 252.342374,71.516729 C252.329833,71.4390166 252.382665,71.3658514 252.460377,71.35331 C252.461161,71.3531835 252.980236,71.2826996 254.017602,71.1418582 C254.094415,71.1314301 254.165138,71.1852458 254.175566,71.2620587 C254.266582,72.0742952 254.170652,72.9107627 253.860885,73.7177344 C252.828272,76.4077823 249.810459,77.7513991 247.120412,76.7187865 L246.66533,77.9043146 C246.635827,77.9811731 246.549603,78.0195622 246.472745,77.9900589 C246.438591,77.9769484 246.410451,77.9517358 246.393682,77.9192213 L244.874129,74.9728604 C244.836393,74.8996916 244.865117,74.8097856 244.938286,74.7720496 C244.941669,74.7703047 245.98029,74.3775084 248.054148,73.5936607 C248.13116,73.5645613 248.217181,73.6034025 248.24628,73.6804148 C248.259205,73.7146215 248.259106,73.7523857 248.246002,73.7865241 L247.788165,74.9792284 Z M249.420256,69.0207716 C247.306647,68.2094331 245.764883,69.1843219 245.087095,70.9500193 C244.890747,71.4615243 244.821884,71.9834335 244.866047,72.483271 C244.878589,72.5609834 244.825757,72.6341486 244.748045,72.64669 C244.747261,72.6468165 244.228186,72.7173004 243.190819,72.8581418 C243.114006,72.8685699 243.043284,72.8147542 243.032856,72.7379413 C242.94184,71.9257048 243.037769,71.0892373 243.347537,70.2822656 C244.38015,67.5922177 247.397962,66.2486009 250.08801,67.2812135 L250.543092,66.0956854 C250.572595,66.0188269 250.658818,65.9804378 250.735677,66.0099411 C250.769831,66.0230516 250.797971,66.0482642 250.81474,66.0807787 L252.334293,69.0271396 C252.372029,69.1003084 252.343305,69.1902144 252.270136,69.2279504 C252.266753,69.2296953 251.228132,69.6224916 249.154274,70.4063393 C249.077261,70.4354387 248.991241,70.3965975 248.962142,70.3195852 C248.949216,70.2853785 248.949316,70.2476143 248.96242,70.2134759 L249.420256,69.0207716 Z" id="icon/refresh" fill="#595959"></path>
    </g>
</svg>